<?xml version="1.0" encoding="utf-8" standalone="no"?>
<!DOCTYPE svg PUBLIC "-//W3C//DTD SVG 1.1//EN"
  "http://www.w3.org/Graphics/SVG/1.1/DTD/svg11.dtd">
<svg xmlns:xlink="http://www.w3.org/1999/xlink" width="138.00096pt" height="138.00096pt" viewBox="0 0 138.00096 138.00096" xmlns="http://www.w3.org/2000/svg" version="1.1">
 <metadata>
  <rdf:RDF xmlns:dc="http://purl.org/dc/elements/1.1/" xmlns:cc="http://creativecommons.org/ns#" xmlns:rdf="http://www.w3.org/1999/02/22-rdf-syntax-ns#">
   <cc:Work>
    <dc:type rdf:resource="http://purl.org/dc/dcmitype/StillImage"/>
    <dc:date>2022-08-08T14:49:46.889552</dc:date>
    <dc:format>image/svg+xml</dc:format>
    <dc:creator>
     <cc:Agent>
      <dc:title>Matplotlib v3.5.2, https://matplotlib.org/</dc:title>
     </cc:Agent>
    </dc:creator>
   </cc:Work>
  </rdf:RDF>
 </metadata>
 <defs>
  <style type="text/css">*{stroke-linejoin: round; stroke-linecap: butt}</style>
 </defs>
 <g id="figure_1">
  <g id="patch_1">
   <path d="M 0 138.00096 
L 138.00096 138.00096 
L 138.00096 0 
L 0 0 
z
" style="fill: #ffffff"/>
  </g>
  <g id="axes_1">
   <g id="matplotlib.axis_1"/>
   <g id="matplotlib.axis_2"/>
   <g id="patch_2">
    <path d="M 123.096292 70.104476 
C 123.096292 60.947613 120.817802 51.93304 116.466855 43.875906 
C 112.115908 35.818772 105.827726 28.969481 98.17092 23.947382 
C 90.514114 18.925284 81.726647 15.886458 72.603131 15.105692 
C 63.479614 14.324926 54.303594 15.826485 45.904816 19.47459 
C 37.506037 23.122696 30.145523 28.803969 24.488851 36.004678 
C 18.83218 43.205387 15.055151 51.701744 13.499306 60.725463 
C 11.943461 69.749181 12.657153 79.019816 15.575846 87.699067 
C 18.494538 96.378317 23.527522 104.196443 30.219689 110.446488 
L 41.522727 98.343884 
C 36.838211 93.968853 33.315122 88.496165 31.272037 82.420689 
C 29.228952 76.345214 28.729368 69.85577 29.81846 63.539167 
C 30.907551 57.222564 33.551471 51.275114 37.511141 46.234617 
C 41.470811 41.194121 46.623171 37.21723 52.502316 34.663556 
C 58.381461 32.109883 64.804675 31.058791 71.191137 31.605327 
C 77.577598 32.151863 83.728825 34.279041 89.088589 37.79451 
C 94.448353 41.309979 98.850081 46.104483 101.895743 51.744477 
C 104.941406 57.384471 106.536349 63.694672 106.536349 70.104476 
L 123.096292 70.104476 
z
" style="fill: #2a1a16; opacity: 0.5; stroke: #2a1a16; stroke-linejoin: miter"/>
   </g>
   <g id="patch_3">
    <path d="M 30.219689 110.446488 
C 38.08041 117.787886 47.918075 122.674135 58.517473 124.501654 
C 69.116871 126.329173 80.022824 125.019481 89.888157 120.73436 
C 99.75349 116.449239 108.15455 109.372708 114.053582 100.378906 
C 119.952615 91.385104 123.096294 80.860258 123.096292 70.104466 
L 106.536349 70.104469 
C 106.536351 77.633523 104.335775 85.000915 100.206453 91.296577 
C 96.07713 97.592238 90.196388 102.54581 83.290655 105.545395 
C 76.384922 108.544979 68.750755 109.461764 61.331176 108.182501 
C 53.911598 106.903237 47.025232 103.482863 41.522727 98.343884 
L 30.219689 110.446488 
z
" style="fill: #0d300d; opacity: 0.5; stroke: #0d300d; stroke-linejoin: miter"/>
   </g>
   <g id="patch_4">
    <path d="M 106.536349 70.104476 
C 106.536349 64.808225 105.447437 59.568093 103.337405 54.710312 
C 101.227373 49.85253 98.140936 45.480046 94.270246 41.865073 
C 90.399555 38.2501 85.826638 35.469247 80.836187 33.695641 
C 75.845737 31.922034 70.543511 31.19326 65.259607 31.554689 
L 66.389697 48.076026 
C 69.409071 47.869496 72.438914 48.285938 75.2906 49.299427 
C 78.142286 50.312917 80.755382 51.901976 82.967205 53.967674 
C 85.179028 56.033373 86.942706 58.531936 88.148439 61.307811 
C 89.354172 64.083686 89.976407 67.078047 89.976407 70.104476 
L 106.536349 70.104476 
z
" style="fill: #07393e; opacity: 0.5; stroke: #07393e; stroke-linejoin: miter"/>
   </g>
   <g id="patch_5">
    <path d="M 65.259607 31.554689 
C 57.748104 32.06849 50.54806 34.766705 44.548871 39.316033 
C 38.549682 43.865362 34.008976 50.070439 31.487649 57.164773 
C 28.966322 64.259106 28.57265 71.93804 30.355262 79.253021 
C 32.137874 86.568003 36.020218 93.2049 41.522722 98.343879 
L 52.825763 86.241278 
C 49.681475 83.304718 47.462993 79.512206 46.444357 75.332216 
C 45.425722 71.152227 45.650677 66.764265 47.091435 62.71036 
C 48.532193 58.656455 51.126883 55.110697 54.554991 52.51108 
C 57.983099 49.911464 62.09741 48.369627 66.389697 48.076026 
L 65.259607 31.554689 
z
" style="fill: #07393e; opacity: 0.5; stroke: #07393e; stroke-linejoin: miter"/>
   </g>
   <g id="patch_6">
    <path d="M 41.522722 98.343879 
C 48.676389 105.024938 58.108149 108.744342 67.896484 108.744342 
C 77.684819 108.744342 87.116579 105.024938 94.270246 98.343879 
L 82.967205 86.241278 
C 78.879395 90.059026 73.489818 92.184399 67.896484 92.184399 
C 62.30315 92.184399 56.913573 90.059026 52.825763 86.241278 
L 41.522722 98.343879 
z
" style="fill: #07393e; opacity: 0.5; stroke: #07393e; stroke-linejoin: miter"/>
   </g>
   <g id="patch_7">
    <path d="M 94.270246 98.343879 
C 98.140936 94.728907 101.227373 90.356422 103.337405 85.498641 
C 105.447437 80.640859 106.536349 75.400727 106.536349 70.104476 
L 89.976407 70.104476 
C 89.976407 73.130905 89.354172 76.125267 88.148439 78.901142 
C 86.942706 81.677017 85.179028 84.175579 82.967205 86.241278 
L 94.270246 98.343879 
z
" style="fill: #07393e; opacity: 0.5; stroke: #07393e; stroke-linejoin: miter"/>
   </g>
   <g id="patch_8">
    <path d="M 124.200288 69.00048 
C 124.200288 59.843617 121.921798 50.829044 117.570851 42.77191 
C 113.219904 34.714776 106.931722 27.865484 99.274916 22.843386 
C 91.61811 17.821287 82.830644 14.782462 73.707127 14.001696 
C 64.583611 13.22093 55.40759 14.722489 47.008812 18.370594 
C 38.610033 22.018699 31.249519 27.699972 25.592848 34.900682 
C 19.936176 42.101391 16.159148 50.597748 14.603303 59.621467 
C 13.047458 68.645185 13.761149 77.91582 16.679842 86.59507 
C 19.598534 95.274321 24.631519 103.092447 31.323685 109.342492 
L 42.626723 97.239888 
C 37.942207 92.864857 34.419118 87.392168 32.376033 81.316693 
C 30.332948 75.241218 29.833364 68.751774 30.922456 62.435171 
C 32.011547 56.118568 34.655467 50.171118 38.615137 45.130621 
C 42.574808 40.090125 47.727167 36.113234 53.606312 33.55956 
C 59.485457 31.005886 65.908671 29.954795 72.295133 30.501331 
C 78.681595 31.047867 84.832821 33.175045 90.192585 36.690514 
C 95.552349 40.205983 99.954077 45.000487 102.99974 50.640481 
C 106.045402 56.280475 107.640346 62.590676 107.640346 69.00048 
L 124.200288 69.00048 
z
" style="fill: #8c564b; stroke: #ffffff; stroke-linejoin: miter"/>
   </g>
   <g id="patch_9">
    <path d="M 31.323685 109.342492 
C 39.184406 116.68389 49.022071 121.570139 59.621469 123.397658 
C 70.220867 125.225177 81.12682 123.915485 90.992153 119.630364 
C 100.857486 115.345243 109.258546 108.268712 115.157578 99.274909 
C 121.056611 90.281107 124.20029 79.756262 124.200288 69.00047 
L 107.640346 69.000473 
C 107.640347 76.529527 105.439772 83.896919 101.310449 90.192581 
C 97.181126 96.488242 91.300384 101.441814 84.394651 104.441399 
C 77.488918 107.440983 69.854751 108.357768 62.435172 107.078505 
C 55.015594 105.799241 48.129228 102.378867 42.626723 97.239888 
L 31.323685 109.342492 
z
" style="fill: #2ca02c; stroke: #ffffff; stroke-linejoin: miter"/>
   </g>
   <g id="patch_10">
    <path d="M 107.640346 69.00048 
C 107.640346 63.704229 106.551434 58.464097 104.441401 53.606316 
C 102.331369 48.748534 99.244933 44.37605 95.374242 40.761077 
C 91.503551 37.146104 86.930634 34.365251 81.940184 32.591645 
C 76.949733 30.818038 71.647507 30.089264 66.363603 30.450693 
L 67.493693 46.97203 
C 70.513067 46.765499 73.54291 47.181942 76.394596 48.195431 
C 79.246282 49.208921 81.859378 50.797979 84.071201 52.863678 
C 86.283024 54.929377 88.046702 57.42794 89.252435 60.203815 
C 90.458168 62.97969 91.080403 65.974051 91.080403 69.00048 
L 107.640346 69.00048 
z
" style="fill: #17becf; stroke: #ffffff; stroke-linejoin: miter"/>
   </g>
   <g id="patch_11">
    <path d="M 66.363603 30.450693 
C 58.852101 30.964494 51.652057 33.662709 45.652868 38.212037 
C 39.653678 42.761366 35.112972 48.966443 32.591645 56.060776 
C 30.070318 63.15511 29.676646 70.834044 31.459258 78.149025 
C 33.24187 85.464006 37.124214 92.100903 42.626718 97.239883 
L 53.929759 85.137282 
C 50.785471 82.200722 48.566989 78.408209 47.548353 74.22822 
C 46.529718 70.048231 46.754673 65.660269 48.195431 61.606364 
C 49.63619 57.552459 52.230879 54.0067 55.658987 51.407084 
C 59.087095 48.807468 63.201406 47.265631 67.493693 46.97203 
L 66.363603 30.450693 
z
" style="fill: #17becf; stroke: #ffffff; stroke-linejoin: miter"/>
   </g>
   <g id="patch_12">
    <path d="M 42.626718 97.239883 
C 49.780385 103.920942 59.212145 107.640346 69.00048 107.640346 
C 78.788815 107.640346 88.220575 103.920942 95.374242 97.239883 
L 84.071201 85.137282 
C 79.983391 88.95503 74.593814 91.080403 69.00048 91.080403 
C 63.407146 91.080403 58.017569 88.95503 53.929759 85.137282 
L 42.626718 97.239883 
z
" style="fill: #17becf; stroke: #ffffff; stroke-linejoin: miter"/>
   </g>
   <g id="patch_13">
    <path d="M 95.374242 97.239883 
C 99.244933 93.62491 102.331369 89.252426 104.441401 84.394644 
C 106.551434 79.536863 107.640346 74.296731 107.640346 69.00048 
L 91.080403 69.00048 
C 91.080403 72.026909 90.458168 75.02127 89.252435 77.797145 
C 88.046702 80.57302 86.283024 83.071583 84.071201 85.137282 
L 95.374242 97.239883 
z
" style="fill: #17becf; stroke: #ffffff; stroke-linejoin: miter"/>
   </g>
   <g id="text_1">
    <!-- AT -->
    <g style="fill: #262626" transform="translate(24.840634 91.080403)scale(0.64 -0.64)">
     <defs>
      <path id="DejaVuSans-41" d="M 2188 4044 
L 1331 1722 
L 3047 1722 
L 2188 4044 
z
M 1831 4666 
L 2547 4666 
L 4325 0 
L 3669 0 
L 3244 1197 
L 1141 1197 
L 716 0 
L 50 0 
L 1831 4666 
z
" transform="scale(0.015625)"/>
      <path id="DejaVuSans-54" d="M -19 4666 
L 3928 4666 
L 3928 4134 
L 2272 4134 
L 2272 0 
L 1638 0 
L 1638 4134 
L -19 4134 
L -19 4666 
z
" transform="scale(0.015625)"/>
     </defs>
     <use xlink:href="#DejaVuSans-41"/>
     <use xlink:href="#DejaVuSans-54" x="60.658203"/>
    </g>
   </g>
   <g id="text_2">
    <!-- AT -->
    <g style="fill: #ffffff" transform="translate(30.636613 88.044414)scale(0.64 -0.64)">
     <use xlink:href="#DejaVuSans-41"/>
     <use xlink:href="#DejaVuSans-54" x="60.658203"/>
    </g>
   </g>
  </g>
 </g>
</svg>
